# xmcd
#
# Track frame offsets:
#	150
#	16249
#	31349
#	47266
#	66249
#	81639
#	97388
#	114745
#	128280
#	147479
#
# Disc length: 2147 seconds
#
# Revision: 1
# Processed by: cddbd v1.5.2PL0 Copyright (c) Steve Scherf et al.
# Submitted via: audiograbber 1.83.01
#
DISCID=8808610a
DTITLE=Martina McBride - Reckless
DYEAR=2016
DGENRE=Country
TTITLE0=Reckless
TTITLE1=It Ain't Pretty
TTITLE2=Just Around The Corner
TTITLE3=Everybody Wants To Be Loved
TTITLE4=The Real Thing (with Buddy Miller)
TTITLE5=That's The Thing About Love
TTITLE6=Low All Afternoon
TTITLE7=Diamond (with Keith Urban)
TTITLE8=We'll Pick Up Where We Left Off
TTITLE9=You And You Alone
EXTD=
EXTT0=
EXTT1=
EXTT2=
EXTT3=
EXTT4=
EXTT5=
EXTT6=
EXTT7=
EXTT8=
EXTT9=
PLAYORDER=
